# xmcd
# Track frame offsets:
# 150
# 15257
# 30817
# 45822
# 57332
# 71105
# 86497
# 99402
# 113280
# 123020
# 137180
# 151572
#
# Disc length: 2196 seconds
# Revision: 0
# Processed by: cddbd v1.4PL0 Copyright (c) Steve Scherf et al.
# Submitted via: VisiTrax 2.9.5.180 - For more info visit www.synapsa.com
#
DISCID=7808920c
DTITLE=Ron Gaddis - Chip off the old block
DYEAR=1900
DGENRE=
TTITLE0=If the red leaves the roses
TTITLE1=Lefty's gone
TTITLE2=After all
TTITLE3=I fell off the wagon (with George Jones)
TTITLE4=Today is that one of these days
TTITLE5=Holding my own
TTITLE6=That's why I cry
TTITLE7=When the shiny silver eagle meets the great speckled bird (with Porte
TTITLE7=r Wagoner)
TTITLE8=Chip off the old block
TTITLE9=All day all night thing (with Lorrie Morgan)
TTITLE10=Home is where the hurt is
TTITLE11=Back in the swing of things (with Leon Rausch)
EXTD=
EXTT0=
EXTT1=
EXTT2=
EXTT3=
EXTT4=
EXTT5=
EXTT6=
EXTT7=
EXTT8=
EXTT9=
EXTT10=
EXTT11=
PLAYORDER=
